<svg width="50" height="50" viewBox="0 0 50 50" fill="none" xmlns="http://www.w3.org/2000/svg">
<path d="M25 0C38.8071 0 50 11.1929 50 25C50 38.8071 38.8071 50 25 50C11.1929 50 0 38.8071 0 25C0 11.1929 11.1929 0 25 0Z" fill="#D9D9D9"/>
<mask id="mask0_348_705" style="mask-type:alpha" maskUnits="userSpaceOnUse" x="0" y="0" width="50" height="50">
<circle cx="25" cy="25" r="25" fill="#D9D9D9"/>
</mask>
<g mask="url(#mask0_348_705)">
<path d="M24.9655 28.2059C29.4805 28.2059 33.1405 24.543 33.1405 20.0246C33.1405 15.5062 29.4805 11.8433 24.9655 11.8433C20.4506 11.8433 16.7905 15.5062 16.7905 20.0246C16.7905 24.543 20.4506 28.2059 24.9655 28.2059Z" fill="white"/>
<path d="M45.2122 47.1321C44.3642 43.2681 42.4197 39.7313 39.6123 36.9463C38.9309 36.262 38.1925 35.637 37.405 35.0782C33.819 32.3863 29.448 30.9489 24.9654 30.9876C19.4843 30.9595 14.2144 33.1014 10.3049 36.9463C7.49749 39.7313 5.55303 43.2681 4.70504 47.1321C4.55765 47.8153 4.56561 48.523 4.72834 49.2027C4.89107 49.8824 5.2044 50.5169 5.64517 51.0591C6.10164 51.613 6.67645 52.0573 7.32727 52.3594C7.97808 52.6614 8.68832 52.8135 9.40567 52.8044H40.5252C41.2446 52.8049 41.9549 52.6434 42.6035 52.3318C43.2521 52.0202 43.8224 51.5666 44.272 51.0046C44.7049 50.4687 45.0137 49.8435 45.1763 49.1739C45.3388 48.5043 45.3511 47.807 45.2122 47.1321Z" fill="white"/>
</g>
</svg>
