<svg width="16" height="14" viewBox="0 0 16 14" fill="none" xmlns="http://www.w3.org/2000/svg">
<path d="M2.67188 8.48242C2.07422 7.88477 1.62305 7.25195 1.31836 6.58398C1.01367 5.91602 0.855469 5.22461 0.84375 4.50977C0.849609 3.70703 1.04883 2.96875 1.44141 2.29492C1.83984 1.61523 2.37598 1.07617 3.0498 0.677734C3.72363 0.279297 4.45898 0.0800781 5.25586 0.0800781C5.75391 0.0800781 6.23438 0.162109 6.69727 0.326172C7.16016 0.484375 7.58203 0.71875 7.96289 1.0293C8.34961 0.71875 8.77441 0.484375 9.2373 0.326172C9.70605 0.162109 10.1895 0.0800781 10.6875 0.0800781C11.4844 0.0800781 12.2197 0.279297 12.8936 0.677734C13.5674 1.07617 14.1035 1.61523 14.502 2.29492C14.9004 2.96875 15.0996 3.70703 15.0996 4.50977C15.0996 5.21875 14.9443 5.90723 14.6338 6.5752C14.3291 7.24316 13.8809 7.87891 13.2891 8.48242L7.96289 13.791L2.67188 8.48242ZM11.9531 7.18164C12.8027 6.33203 13.2363 5.44141 13.2539 4.50977C13.248 4.04102 13.1279 3.61035 12.8936 3.21777C12.6592 2.8252 12.3457 2.51465 11.9531 2.28613C11.5664 2.05762 11.1445 1.94336 10.6875 1.94336C10.3828 1.94336 10.0986 1.99609 9.83496 2.10156C9.57129 2.20117 9.29004 2.37402 8.99121 2.62012C8.69238 2.86621 8.34961 3.20898 7.96289 3.64844C7.58789 3.20898 7.25098 2.86621 6.95215 2.62012C6.65918 2.37402 6.37793 2.20117 6.1084 2.10156C5.84473 1.99609 5.56055 1.94336 5.25586 1.94336C4.79883 1.94336 4.37695 2.05762 3.99023 2.28613C3.60352 2.51465 3.29297 2.8252 3.05859 3.21777C2.83008 3.61035 2.71289 4.04102 2.70703 4.50977C2.72461 5.43555 3.15234 6.32617 3.99023 7.18164L7.96289 11.1543L11.9531 7.18164Z" fill="black"/>
</svg>
